<?xml version="1.0" encoding="UTF-8"?>
<svg width="32px" height="32px" viewBox="0 0 32 32" version="1.1" xmlns="http://www.w3.org/2000/svg">
    <g stroke="none" stroke-width="1" fill="none" fill-rule="evenodd">
        <rect fill="#1890FF" x="0" y="0" width="32" height="32" rx="6"></rect>
        <path d="M16,6 C17.1045695,6 18,6.8954305 18,8 C18,9.1045695 17.1045695,10 16,10 C14.8954305,10 14,9.1045695 14,8 C14,6.8954305 14.8954305,6 16,6 Z M22,14 C23.1045695,14 24,14.8954305 24,16 L24,22 C24,23.1045695 23.1045695,24 22,24 L10,24 C8.8954305,24 8,23.1045695 8,22 L8,16 C8,14.8954305 8.8954305,14 10,14 L22,14 Z M16,16 C14.3431458,16 13,17.3431458 13,19 C13,20.6568542 14.3431458,22 16,22 C17.6568542,22 19,20.6568542 19,19 C19,17.3431458 17.6568542,16 16,16 Z" fill="#FFFFFF"></path>
    </g>
</svg> 